# Blender v2.93.4 OBJ File: 'original.blend'
# www.blender.org
o room_bed
v -4.171788 8.125000 4.375000
v -4.171788 7.875000 3.625001
v -4.171788 8.125000 2.125001
v -4.171788 7.875000 2.125001
v -4.171788 7.625000 4.375000
v -4.171788 7.625000 3.625001
v -4.171788 0.125000 4.375000
v -4.171788 -0.125000 3.625001
v -4.171788 0.125000 3.625001
v -4.171788 -0.375000 4.375000
v -4.171788 -0.375000 2.125001
v -4.171788 -0.125000 2.125001
v -4.171788 0.125000 1.625001
v -4.171787 -0.375000 0.375001
v -4.171787 0.125000 0.375001
v -4.171788 -0.375000 1.625001
v -4.171788 8.125000 1.625001
v -4.171787 7.625000 0.375001
v -4.171787 8.125000 0.375001
v -4.171788 7.625000 1.625001
v 4.328212 7.875000 3.625003
v 4.328212 7.625000 3.375003
v 4.328212 7.875000 2.125003
v 4.328212 7.625000 2.125003
v 4.328212 -0.125000 3.625003
v 4.328212 0.125000 3.375003
v 4.328212 -0.125000 2.125003
v 4.328212 0.125000 2.125003
v 6.578212 5.625000 3.625003
v 6.578212 2.375000 3.375003
v 6.578212 5.625000 3.375003
v 6.578212 2.375000 3.625003
v 7.828213 8.125000 0.375004
v 7.828212 8.125000 5.625004
v 7.828213 7.625000 1.625004
v 7.828212 7.625000 5.125004
v 7.828213 7.625000 0.375004
v 7.828213 0.125000 1.625004
v 7.828212 7.625000 5.625004
v 7.828212 0.125000 5.125004
v 7.828212 -0.375000 5.625004
v 7.828212 0.125000 5.625004
v 7.828213 -0.375000 0.375004
v 7.828213 0.125000 0.375004
v -4.671788 7.625000 2.125000
v -4.671788 8.125000 4.375000
v -4.671787 8.125000 0.375001
v -4.671788 7.625000 1.625001
v -4.671788 7.625000 4.375000
v -4.671787 7.625000 0.375001
v -4.671788 0.125000 1.625001
v -4.671788 0.125000 2.125000
v -4.671787 -0.375000 0.375001
v -4.671788 -0.375000 4.375000
v -4.671787 0.125000 0.375001
v -4.671788 0.125000 4.375000
v -4.171788 0.125000 2.125001
v -4.171788 7.625000 2.125001
v 4.828212 2.375000 3.375003
v 4.828212 5.625000 3.625003
v 4.828212 5.625000 3.375003
v 4.828212 2.375000 3.625003
v 7.328212 8.125000 5.625003
v 7.328212 8.125000 2.125004
v 7.328212 7.625000 3.375004
v 7.328212 7.625000 5.125003
v 7.328212 7.625000 2.125004
v 7.328212 0.125000 3.375004
v 7.328212 7.625000 5.625003
v 7.328212 0.125000 5.125003
v 7.328212 -0.375000 5.625003
v 7.328212 0.125000 5.625003
v 7.328212 -0.375000 2.125004
v 7.328212 0.125000 2.125004
v 7.328213 -0.375000 0.375004
v 7.328213 0.125000 1.625004
v 7.328213 0.125000 0.375004
v 7.328213 -0.375000 1.625004
v 7.328213 7.625000 0.375004
v 7.328213 8.125000 1.625004
v 7.328213 8.125000 0.375004
v 7.328213 7.625000 1.625004
vn 1.0000 -0.0000 0.0000
vn -1.0000 -0.0000 -0.0000
vn 0.0000 0.0000 -1.0000
vn -0.0000 0.0000 1.0000
vn 0.0000 1.0000 0.0000
vn 0.0000 -1.0000 0.0000
f 1//1 2//1 3//1
f 2//1 4//1 3//1
f 1//1 5//1 2//1
f 5//1 6//1 2//1
f 7//1 8//1 9//1
f 7//1 10//1 8//1
f 8//1 10//1 11//1
f 8//1 11//1 12//1
f 13//1 14//1 15//1
f 13//1 16//1 14//1
f 17//1 18//1 19//1
f 17//1 20//1 18//1
f 21//1 22//1 23//1
f 22//1 24//1 23//1
f 21//1 25//1 22//1
f 25//1 26//1 22//1
f 26//1 25//1 27//1
f 26//1 27//1 28//1
f 29//1 30//1 31//1
f 29//1 32//1 30//1
f 33//1 34//1 35//1
f 34//1 36//1 35//1
f 35//1 37//1 33//1
f 36//1 38//1 35//1
f 34//1 39//1 36//1
f 36//1 40//1 38//1
f 41//1 38//1 40//1
f 40//1 42//1 41//1
f 43//1 38//1 41//1
f 38//1 43//1 44//1
f 45//2 46//2 47//2
f 48//2 45//2 47//2
f 49//2 46//2 45//2
f 50//2 48//2 47//2
f 51//2 45//2 48//2
f 52//2 45//2 51//2
f 52//2 51//2 53//2
f 52//2 53//2 54//2
f 56//2 52//2 54//2
f 57//2 6//2 58//2
f 9//2 6//2 57//2
f 59//2 60//2 61//2
f 62//2 60//2 59//2
f 63//2 64//2 65//2
f 66//2 63//2 65//2
f 67//2 65//2 64//2
f 68//2 66//2 65//2
f 69//2 63//2 66//2
f 70//2 66//2 68//2
f 68//2 71//2 70//2
f 72//2 70//2 71//2
f 68//2 73//2 71//2
f 73//2 68//2 74//2
f 75//2 76//2 77//2
f 78//2 76//2 75//2
f 79//2 80//2 81//2
f 82//2 80//2 79//2
f 13//3 48//3 20//3
f 13//3 20//3 76//3
f 51//3 48//3 13//3
f 78//3 13//3 76//3
f 76//3 20//3 82//3
f 16//3 13//3 78//3
f 76//3 82//3 38//3
f 20//3 17//3 82//3
f 38//3 82//3 35//3
f 82//3 17//3 80//3
f 72//4 41//4 42//4
f 72//4 71//4 41//4
f 63//4 39//4 34//4
f 63//4 69//4 39//4
f 66//4 40//4 36//4
f 66//4 70//4 40//4
f 56//4 10//4 7//4
f 56//4 54//4 10//4
f 46//4 5//4 1//4
f 46//4 49//4 5//4
f 21//4 2//4 6//4
f 21//4 6//4 25//4
f 6//4 9//4 25//4
f 9//4 8//4 25//4
f 60//4 32//4 29//4
f 60//4 62//4 32//4
f 65//4 22//4 31//4
f 22//4 61//4 31//4
f 65//4 31//4 30//4
f 61//4 22//4 59//4
f 65//4 30//4 68//4
f 22//4 26//4 59//4
f 68//4 30//4 26//4
f 30//4 59//4 26//4
f 45//4 57//4 58//4
f 45//4 52//4 57//4
f 27//4 12//4 11//4
f 73//4 27//4 11//4
f 74//4 27//4 73//4
f 74//4 28//4 27//4
f 3//4 23//4 64//4
f 23//4 67//4 64//4
f 3//4 4//4 23//4
f 23//4 24//4 67//4
f 79//4 77//4 44//4
f 79//4 44//4 37//4
f 55//5 13//5 15//5
f 55//5 51//5 13//5
f 52//5 9//5 57//5
f 52//5 56//5 9//5
f 56//5 7//5 9//5
f 70//5 42//5 40//5
f 70//5 72//5 42//5
f 77//5 38//5 44//5
f 77//5 76//5 38//5
f 61//5 29//5 31//5
f 61//5 60//5 29//5
f 4//5 21//5 23//5
f 4//5 2//5 21//5
f 24//5 65//5 67//5
f 24//5 22//5 65//5
f 47//5 17//5 19//5
f 17//5 47//5 3//5
f 47//5 46//5 3//5
f 17//5 3//5 64//5
f 46//5 1//5 3//5
f 17//5 64//5 80//5
f 33//5 80//5 64//5
f 34//5 33//5 64//5
f 33//5 81//5 80//5
f 64//5 63//5 34//5
f 25//6 12//6 27//6
f 8//6 12//6 25//6
f 68//6 28//6 74//6
f 26//6 28//6 68//6
f 32//6 59//6 30//6
f 62//6 59//6 32//6
f 20//6 50//6 18//6
f 48//6 50//6 20//6
f 6//6 45//6 58//6
f 49//6 45//6 6//6
f 5//6 49//6 6//6
f 39//6 66//6 36//6
f 69//6 66//6 39//6
f 35//6 79//6 37//6
f 82//6 79//6 35//6
f 53//6 16//6 11//6
f 54//6 53//6 11//6
f 11//6 16//6 73//6
f 10//6 54//6 11//6
f 73//6 16//6 78//6
f 78//6 43//6 73//6
f 43//6 41//6 73//6
f 75//6 43//6 78//6
f 71//6 73//6 41//6
